<?xml version="1.0" standalone="no"?>
<!DOCTYPE svg PUBLIC "-//W3C//DTD SVG 20010904//EN"
 "http://www.w3.org/TR/2001/REC-SVG-20010904/DTD/svg10.dtd">
<svg version="1.0" xmlns="http://www.w3.org/2000/svg"
 width="2222.000000pt" height="2222.000000pt" viewBox="0 0 2222.000000 2222.000000"
 preserveAspectRatio="xMidYMid meet">
<metadata>
Created by potrace 1.14, written by Peter Selinger 2001-2017
</metadata>
<g transform="translate(0.000000,2222.000000) scale(0.100000,-0.100000)"
fill="#000000" stroke="none">
<path d="M21410 21549 c-19 -5 -45 -11 -57 -13 -45 -9 -172 -40 -408 -98 -132
-32 -251 -61 -265 -64 -14 -3 -34 -8 -45 -11 -11 -4 -24 -8 -30 -9 -15 -3
-273 -72 -395 -105 -58 -16 -114 -31 -125 -34 -37 -8 -598 -172 -735 -215
-506 -155 -1234 -401 -1555 -525 -38 -14 -77 -28 -85 -30 -17 -4 -503 -190
-535 -205 -11 -5 -90 -37 -175 -71 -144 -57 -598 -246 -700 -291 -25 -11 -58
-26 -75 -33 -16 -7 -55 -24 -85 -38 -30 -14 -120 -54 -200 -90 -150 -67 -256
-117 -445 -207 -60 -29 -116 -54 -123 -56 -8 -1 -22 -10 -31 -18 -10 -9 -23
-16 -29 -16 -12 0 -611 -301 -767 -386 -95 -51 -160 -86 -272 -145 -37 -20
-92 -51 -121 -68 -29 -17 -55 -31 -57 -31 -7 0 -411 -233 -595 -343 -461 -276
-842 -521 -1265 -816 -121 -84 -436 -309 -480 -343 -5 -5 -111 -85 -235 -180
-124 -94 -227 -174 -230 -177 -3 -4 -59 -50 -125 -103 -193 -154 -244 -196
-360 -296 -192 -164 -225 -193 -325 -282 -287 -257 -495 -456 -775 -740 -188
-190 -203 -206 -358 -374 -51 -55 -97 -104 -103 -110 -26 -28 -304 -347 -344
-396 -25 -30 -53 -64 -64 -75 -41 -45 -370 -460 -467 -590 -287 -386 -453
-630 -706 -1033 -45 -74 -83 -138 -83 -143 0 -5 -4 -9 -10 -9 -5 0 -10 -5 -10
-10 0 -6 -13 -31 -29 -57 -17 -26 -28 -49 -27 -51 2 -1 14 -5 27 -7 13 -3 76
-16 139 -31 63 -14 122 -27 130 -29 198 -41 559 -123 575 -129 6 -3 -1 -5 -15
-6 -14 -1 -32 -3 -41 -5 -8 -1 -58 -6 -110 -9 -52 -4 -107 -8 -124 -10 -16 -2
-66 -7 -110 -11 -44 -3 -96 -8 -115 -10 -19 -2 -69 -6 -110 -10 -41 -3 -91 -8
-110 -10 -19 -2 -71 -7 -115 -10 -44 -3 -96 -8 -115 -10 -19 -2 -66 -6 -105
-10 -38 -3 -90 -8 -115 -10 -25 -2 -76 -7 -115 -10 -38 -3 -90 -7 -115 -10
-25 -2 -76 -7 -115 -10 -38 -3 -81 -8 -95 -10 -14 -2 -65 -6 -115 -10 -49 -3
-103 -8 -120 -10 -16 -2 -66 -7 -110 -10 -44 -3 -98 -8 -120 -10 -51 -6 -143
-14 -220 -20 -33 -3 -80 -7 -105 -10 -25 -3 -77 -7 -115 -10 -39 -3 -89 -8
-112 -10 -24 -3 -73 -7 -110 -10 -38 -3 -86 -8 -108 -10 -45 -4 -152 -13 -235
-20 -30 -3 -80 -7 -110 -10 -30 -3 -77 -8 -105 -10 -141 -13 -169 -15 -222
-21 -32 -3 -83 -7 -113 -9 -30 -2 -82 -7 -115 -10 -33 -3 -85 -8 -115 -10 -30
-3 -80 -8 -110 -11 -30 -2 -77 -7 -105 -9 -132 -11 -201 -18 -213 -19 -7 -1
-65 -52 -130 -113 -64 -60 -135 -127 -157 -147 -22 -21 -72 -68 -111 -104 -39
-37 -130 -123 -204 -192 -73 -69 -152 -143 -175 -165 -23 -22 -95 -89 -160
-150 -65 -60 -137 -128 -160 -150 -23 -22 -97 -92 -165 -155 -67 -63 -144
-135 -170 -160 -62 -59 -285 -268 -330 -310 -19 -18 -91 -85 -159 -149 -67
-64 -147 -139 -176 -166 l-54 -51 81 -84 c44 -47 121 -129 172 -183 50 -55
114 -123 141 -151 28 -29 104 -111 170 -181 66 -70 138 -147 160 -170 22 -24
96 -103 165 -176 69 -74 143 -153 165 -176 22 -23 85 -89 140 -148 55 -59 120
-129 145 -155 25 -26 99 -105 165 -176 66 -70 154 -164 197 -208 42 -45 91
-98 110 -118 l33 -37 50 46 c28 24 106 97 174 161 172 163 208 196 276 260 33
30 120 112 193 181 74 69 148 140 166 156 332 312 344 323 515 484 68 64 143
134 166 156 42 40 236 221 410 384 49 46 97 91 105 100 9 9 45 43 80 76 36 33
135 126 220 206 85 80 184 172 218 205 35 32 96 89 135 126 39 37 73 66 74 64
2 -2 -5 -25 -16 -52 -11 -27 -29 -76 -42 -109 -12 -33 -28 -73 -34 -90 -7 -16
-27 -73 -45 -125 -17 -52 -35 -104 -40 -115 -29 -66 -150 -456 -235 -755 -76
-269 -78 -232 13 -326 66 -71 227 -241 342 -364 113 -121 269 -287 295 -314
31 -33 251 -267 325 -346 106 -113 279 -297 318 -339 24 -25 89 -95 145 -154
55 -59 123 -132 151 -161 64 -67 283 -300 315 -335 13 -14 58 -62 100 -107
157 -166 349 -370 375 -399 31 -33 230 -245 346 -368 l76 -79 124 26 c69 15
134 28 145 30 11 3 61 13 110 25 50 11 101 22 115 25 43 8 502 126 509 130 4
3 18 7 32 10 21 4 169 47 407 119 l83 25 -29 -26 c-16 -15 -92 -85 -168 -157
-76 -71 -154 -146 -175 -165 -178 -168 -271 -255 -310 -292 -25 -23 -106 -99
-179 -168 -73 -69 -150 -141 -170 -160 -21 -19 -89 -83 -151 -141 -63 -59
-132 -124 -155 -145 -22 -22 -98 -93 -168 -159 -71 -66 -143 -133 -160 -150
-79 -74 -305 -287 -341 -320 -22 -21 -96 -90 -163 -154 -68 -64 -141 -132
-161 -151 -21 -19 -98 -92 -172 -161 -74 -69 -167 -157 -206 -194 -40 -37 -73
-71 -73 -74 0 -3 26 -34 58 -68 86 -93 378 -404 482 -513 25 -26 72 -76 104
-111 33 -35 123 -131 200 -213 78 -82 168 -179 201 -214 33 -36 85 -90 115
-122 30 -32 101 -106 157 -166 55 -60 118 -127 140 -150 91 -97 282 -301 330
-352 l52 -56 32 29 c17 17 46 44 64 60 17 17 70 66 117 110 74 70 264 249 383
360 22 20 100 94 174 163 73 70 143 135 153 144 11 10 86 80 167 156 80 76
172 163 205 193 32 29 82 77 111 104 28 28 107 102 175 165 68 63 144 135 169
158 25 24 96 90 156 147 61 57 138 130 172 162 44 41 64 67 68 91 9 57 13 84
35 227 11 77 23 151 25 165 2 14 7 45 10 70 3 25 11 72 16 105 15 85 17 94 24
150 3 28 8 59 10 70 4 19 12 70 20 128 13 92 16 114 20 127 2 8 6 38 10 65 7
58 15 108 21 139 2 11 7 41 10 66 2 25 9 68 14 95 5 28 12 70 15 95 3 25 8 59
11 75 10 64 13 81 19 125 8 60 14 100 20 130 3 14 7 44 10 68 3 24 7 53 10 65
2 12 7 40 10 62 3 22 10 65 15 95 5 30 12 72 15 94 7 55 15 116 21 151 9 50
12 68 19 120 3 28 8 57 10 65 2 8 7 42 11 75 3 33 8 63 10 66 1 3 6 28 9 55 3
27 10 72 15 99 5 28 12 73 16 100 3 28 7 57 9 65 5 29 17 106 30 195 3 23 7
50 9 60 2 11 7 45 11 75 4 30 9 64 11 75 5 23 24 147 29 185 2 14 6 43 10 65
11 70 31 198 40 260 3 23 7 50 9 60 2 11 12 75 22 143 19 128 28 136 38 37 4
-33 9 -67 11 -75 6 -20 13 -64 20 -125 4 -27 8 -57 10 -65 2 -8 16 -91 30
-185 14 -93 28 -179 30 -190 4 -24 13 -81 20 -130 l6 -35 127 67 c278 146 632
346 872 495 106 65 95 59 205 128 44 28 89 57 100 63 11 7 22 14 25 17 3 3 58
41 124 84 225 149 752 526 776 555 3 3 32 26 65 51 33 24 66 50 75 57 8 6 56
44 105 84 128 102 166 133 179 144 6 6 51 44 101 85 97 81 317 270 325 279 3
3 25 24 50 45 49 43 179 161 299 271 117 108 734 727 846 849 55 60 105 114
110 120 25 26 204 227 255 285 30 35 64 73 75 85 90 100 325 382 552 666 7 8
58 74 113 145 56 72 113 145 127 163 33 42 293 392 313 422 8 12 44 61 78 109
35 47 84 115 108 151 24 36 64 94 90 130 38 55 326 486 430 645 18 28 84 132
146 232 62 100 131 210 153 245 21 35 40 65 40 68 0 3 12 23 26 45 26 41 245
413 291 495 14 25 66 117 115 205 80 142 130 233 273 500 67 126 146 278 199
385 29 58 56 112 61 120 29 53 248 500 313 640 19 41 64 138 99 215 190 409
368 821 565 1310 112 276 358 916 368 955 2 8 20 60 41 115 191 524 507 1508
535 1669 61 356 -190 711 -549 776 -68 12 -196 11 -252 -1z m-3860 -2693 c110
-8 251 -32 345 -58 22 -7 42 -12 45 -13 59 -14 197 -69 295 -117 504 -250 866
-711 989 -1261 15 -65 30 -146 34 -180 9 -84 9 -376 -1 -457 -10 -83 -55 -285
-72 -327 -8 -18 -12 -33 -10 -33 8 0 -76 -196 -118 -274 -40 -75 -121 -205
-152 -245 -145 -183 -254 -289 -426 -412 -184 -132 -454 -252 -664 -295 -56
-12 -73 -15 -105 -20 -19 -3 -46 -8 -60 -11 -62 -13 -389 -11 -490 3 -869 123
-1532 822 -1605 1694 -6 69 -6 275 0 315 2 17 9 64 14 105 85 624 513 1182
1101 1437 198 86 386 133 600 149 41 3 76 7 77 7 3 3 128 -1 203 -7z"/>
<path d="M6275 8274 c-49 -48 -119 -114 -155 -148 -251 -235 -338 -317 -362
-338 l-27 -24 42 -46 c23 -25 94 -101 157 -168 63 -68 132 -141 153 -164 22
-22 94 -99 160 -170 67 -71 151 -161 187 -199 123 -131 152 -162 214 -227 189
-201 328 -349 352 -375 15 -16 85 -91 155 -165 70 -74 140 -148 154 -165 15
-16 56 -60 92 -97 l64 -67 38 37 c20 20 95 91 165 157 70 66 142 134 160 150
17 17 84 79 149 139 64 60 117 112 117 116 0 4 -21 29 -47 57 -89 95 -268 286
-303 323 -19 21 -94 100 -166 176 -72 77 -142 151 -155 165 -31 34 -254 272
-299 319 -19 20 -87 92 -151 161 -65 68 -134 142 -155 165 -22 23 -93 99 -159
169 -66 71 -158 168 -205 216 l-85 89 -90 -86z"/>
<path d="M5388 6995 c-2 -2 -37 -5 -78 -6 -288 -8 -620 -158 -832 -377 -41
-42 -192 -234 -336 -427 -144 -192 -265 -354 -269 -360 -5 -5 -20 -26 -33 -45
-14 -19 -27 -37 -30 -40 -3 -3 -124 -165 -270 -360 -146 -195 -269 -359 -273
-365 -5 -5 -128 -170 -273 -365 -372 -497 -817 -1092 -831 -1110 -7 -8 -77
-103 -157 -210 -80 -107 -149 -199 -153 -205 -5 -5 -60 -80 -124 -165 -133
-178 -1360 -1819 -1577 -2108 -79 -106 -143 -195 -141 -197 2 -1 72 42 154 96
83 55 179 118 215 141 36 23 164 107 285 186 121 80 247 162 280 183 33 22 67
44 75 50 48 31 356 234 541 354 118 76 216 142 219 146 3 3 15 11 28 18 18 10
320 205 372 241 18 13 248 164 425 280 201 130 464 302 640 418 88 58 216 142
285 187 304 199 596 390 855 560 183 120 336 220 590 386 88 57 165 107 170
112 6 4 66 44 135 88 802 521 896 586 1005 694 110 109 122 123 177 206 94
144 174 347 194 495 3 27 8 58 10 69 6 31 5 254 -2 305 -60 459 -355 845 -783
1025 -108 46 -269 85 -376 91 -49 3 -95 7 -102 9 -6 2 -13 2 -15 0z"/>
</g>
</svg>
